<?xml version="1.0" standalone="no"?><!DOCTYPE svg PUBLIC "-//W3C//DTD SVG 1.1//EN" "http://www.w3.org/Graphics/SVG/1.1/DTD/svg11.dtd"><svg t="1551003839649" class="icon" style="" viewBox="0 0 1024 1024" version="1.1" xmlns="http://www.w3.org/2000/svg" p-id="3805" xmlns:xlink="http://www.w3.org/1999/xlink" width="128" height="128"><defs><style type="text/css"></style></defs><path d="M955.223881 753.99005v-10.189055c0-10.189055-5.094527-20.378109-5.094528-30.567164v-5.094528h-5.094527c-20.378109-5.094527-40.756219-20.378109-50.945274-40.756218-10.189055-20.378109-15.283582-45.850746-10.189054-66.228856v-5.094528l-5.094528-5.094527-20.378109-20.378109c-10.189055-10.189055-25.472637-15.283582-40.756219-25.472637h-5.094528c-5.094527-5.094527-10.189055-5.094527-20.378109-10.189055-5.094527-5.094527-15.283582-5.094527-20.378109-5.094527H766.726368l-5.094527 5.094527c-30.567164 30.567164-91.701493 30.567164-122.268657 0l-5.094527-5.094527h-5.094528c-5.094527 0-15.283582 5.094527-20.378109 10.189054-5.094527 0-10.189055 5.094527-20.37811 10.189055h-5.094527c-15.283582 5.094527-25.472637 15.283582-40.756219 25.472637-10.189055 5.094527-15.283582 10.189055-20.378109 20.378109l-10.189055-5.094527v5.094527c5.094527 20.378109 5.094527 45.850746-10.189055 66.228856-10.189055 20.378109-30.567164 35.661692-50.945273 40.756219h-5.094528v5.094527c0 10.189055-5.094527 20.378109-5.094527 30.567165v61.134328c0 10.189055 5.094527 20.378109 5.094527 30.567164v5.094528h5.094528c20.378109 5.094527 40.756219 20.378109 50.945273 40.756218 10.189055 20.378109 15.283582 45.850746 10.189055 66.228856v5.094528l5.094527 5.094527 20.37811 20.378109c10.189055 10.189055 25.472637 15.283582 35.661691 25.472637 5.094527 5.094527 10.189055 5.094527 20.37811 10.189055 5.094527 5.094527 15.283582 5.094527 20.378109 5.094527h5.094528l5.094527-5.094527c30.567164-30.567164 91.701493-30.567164 122.268657 0l5.094527 5.094527h5.094527c5.094527 0 15.283582-5.094527 20.37811-10.189054 5.094527 0 10.189055-5.094527 20.378109-10.189055h5.094528c15.283582-5.094527 25.472637-15.283582 40.756219-25.472637 10.189055-5.094527 15.283582-10.189055 20.378109-20.378109l5.094527-5.094528v-5.094527c-5.094527-20.378109-5.094527-45.850746 10.189055-66.228856 10.189055-20.378109 30.567164-35.661692 50.945274-40.756219h5.094527v-5.094527c0-10.189055 5.094527-20.378109 5.094528-30.567164v-10.189055-20.37811c15.283582 0 15.283582-5.094527 15.283582-10.189054z m-50.945274 45.850746c-25.472637 10.189055-45.850746 30.567164-61.134328 56.039801-15.283582 25.472637-20.378109 50.945274-20.37811 81.512438-15.283582 10.189055-30.567164 20.378109-50.945273 30.567164-45.850746-30.567164-112.079602-30.567164-157.930349 0-20.378109-5.094527-35.661692-15.283582-50.945273-30.567164 0-25.472637-5.094527-56.039801-20.37811-81.512438-15.283582-25.472637-35.661692-45.850746-61.134328-56.039801V769.273632v-30.567164c25.472637-10.189055 45.850746-30.567164 61.134328-56.039801 15.283582-25.472637 20.378109-50.945274 20.37811-81.512438 15.283582-10.189055 30.567164-20.378109 50.945273-30.567164 45.850746 30.567164 112.079602 30.567164 157.930349 0 20.378109 5.094527 35.661692 15.283582 50.945273 30.567164 0 25.472637 5.094527 56.039801 20.37811 81.512438 15.283582 25.472637 35.661692 45.850746 61.134328 56.039801v61.134328z" p-id="3806" fill="#e6e6e6"></path><path d="M695.402985 667.383085c-56.039801 0-101.890547 45.850746-101.890547 101.890547s45.850746 101.890547 101.890547 101.890547 101.890547-45.850746 101.890547-101.890547c5.094527-56.039801-40.756219-101.890547-101.890547-101.890547z m0 157.930348c-30.567164 0-50.945274-25.472637-50.945274-50.945274s25.472637-50.945274 50.945274-50.945273c30.567164 0 50.945274 25.472637 50.945274 50.945273s-20.378109 50.945274-50.945274 50.945274zM374.447761 927.20398H129.910448c10.189055-183.402985 147.741294-366.80597 315.860696-422.845771 15.283582 5.094527 35.661692 5.094527 50.945274 5.094527 137.552239 0 254.726368-112.079602 254.726368-254.726368 0-137.552239-112.079602-254.726368-254.726368-254.726368s-254.726368 112.079602-254.726368 254.726368c0 91.701493 50.945274 173.21393 122.268656 213.970149-157.930348 81.512438-285.293532 264.915423-295.482587 448.318408v30.567165c0 15.283582 15.283582 30.567164 30.567165 30.567164h270.00995c15.283582 0 25.472637-10.189055 25.472637-25.472637v-10.189055c5.094527-5.094527-5.094527-15.283582-20.37811-15.283582zM303.124378 259.820896c0-106.985075 86.606965-193.59204 193.59204-193.59204s193.59204 86.606965 193.59204 193.59204c0 106.985075-86.606965 193.59204-193.59204 193.592039S303.124378 361.711443 303.124378 259.820896z" p-id="3807" fill="#e6e6e6"></path></svg>