<?xml version="1.0" standalone="no"?><!DOCTYPE svg PUBLIC "-//W3C//DTD SVG 1.1//EN" "http://www.w3.org/Graphics/SVG/1.1/DTD/svg11.dtd"><svg t="1551027524738" class="icon" style="" viewBox="0 0 1024 1024" version="1.1" xmlns="http://www.w3.org/2000/svg" p-id="9784" xmlns:xlink="http://www.w3.org/1999/xlink" width="128" height="128"><defs><style type="text/css"></style></defs><path d="M624.20992 289.46432c-26.80832-23.04-65.06496-34.54976-114.70848-34.54976-45.8752 0-82.26816 8.33536-108.9536 24.96512-26.80832 16.67072-40.1408 39.05536-40.1408 67.19488 0 23.04 10.48576 42.88512 31.5392 59.53536 20.95104 16.67072 75.44832 36.47488 163.45088 59.51488 84.04992 23.04 149.07392 50.56512 194.99008 82.57536 45.85472 32.01024 68.8128 68.5056 68.8128 109.38368 0 59.00288-27.79136 105.61536-83.16928 140.16512-42.43456 26.48064-96.768 42.61888-162.59072 48.78336V983.04h-81.92v-133.81632c-86.67136-2.19136-155.72992-19.37408-205.68064-52.85888C232.2432 760.54528 204.8 709.14048 204.8 655.38048h152.59648c0 38.4-2.74432 70.57408 31.66208 90.99264 34.42688 20.60288 74.56768 30.76096 120.4224 30.76096 61.09184 0 106.10688-10.83392 134.77888-32.62464 28.672-21.7088 43.008-48.0256 43.008-78.78656 0-25.4976-17.2032-49.21344-51.6096-71.02464-34.44736-21.68832-84.15232-41.53344-149.11488-59.47392-91.7504-23.04-157.71648-48.61952-197.87776-76.8-40.12032-28.16-60.2112-61.44-60.2112-99.84 0-53.76 27.70944-97.28 83.16928-130.56C362.51648 197.48864 422.78912 181.61664 491.52 179.11808V40.96h81.92v140.55424c66.64192 7.04512 117.28896 25.57952 151.12192 56.09472 43.9296 39.71072 90.64448 84.95104 90.64448 131.03104l-156.5696-2.39616c3.72736-28.11904-7.72096-53.71904-34.42688-76.77952z" p-id="9785" fill="#dbdbdb"></path></svg>