<?xml version="1.0" standalone="no"?><!DOCTYPE svg PUBLIC "-//W3C//DTD SVG 1.1//EN" "http://www.w3.org/Graphics/SVG/1.1/DTD/svg11.dtd"><svg t="1551027236252" class="icon" style="" viewBox="0 0 1024 1024" version="1.1" xmlns="http://www.w3.org/2000/svg" p-id="8804" xmlns:xlink="http://www.w3.org/1999/xlink" width="128" height="128"><defs><style type="text/css"></style></defs><path d="M742.370112 0l-28.032 28.032a680.32 680.32 0 0 1 0 960.896l-7.424 7.04L734.818112 1024l7.424-7.04A719.872 719.872 0 0 0 742.370112 0zM511.970112 230.4a393.344 393.344 0 0 1 0 556.16c-2.304 2.432-4.864 4.608-7.296 6.912l28.032 28.032c2.432-2.304 4.992-4.48 7.296-6.912a432.896 432.896 0 0 0 0-612.224zM116.834112 405.888a155.392 155.392 0 0 0 219.648 219.776A155.392 155.392 0 0 0 116.834112 405.888z m192 192a115.2 115.2 0 1 1 0-163.712 115.84 115.84 0 0 1-0.384 163.456z" fill="#dbdbdb" p-id="8805"></path></svg>