<?xml version="1.0" standalone="no"?><!DOCTYPE svg PUBLIC "-//W3C//DTD SVG 1.1//EN" "http://www.w3.org/Graphics/SVG/1.1/DTD/svg11.dtd"><svg t="1551027629480" class="icon" style="" viewBox="0 0 1024 1024" version="1.1" xmlns="http://www.w3.org/2000/svg" p-id="10564" xmlns:xlink="http://www.w3.org/1999/xlink" width="128" height="128"><defs><style type="text/css"></style></defs><path d="M960.003 479.997 768.002 479.997c-17.683 0-32 14.323-32 32.007s14.317 32 32 32l192.001 0c17.69 0 32-14.317 32-32S977.693 479.997 960.003 479.997z" p-id="10565" fill="#dbdbdb"></path><path d="M748.097 366.933l180.404-65.62c16.627-6.067 25.19-24.403 19.123-41.031-6.029-16.621-24.371-25.159-40.999-19.123L726.19 306.811c-16.595 6.061-25.152 24.41-19.13 41.037C713.128 364.469 731.47 373.001 748.097 366.933z" p-id="10566" fill="#dbdbdb"></path><path d="M928.502 722.75l-180.436-65.716c-16.627-6.029-34.938 2.496-41.005 19.117-6.054 16.627 2.509 34.983 19.13 41.005l180.436 65.69c16.627 6.067 34.944-2.502 40.999-19.123C953.692 747.096 945.129 728.785 928.502 722.75z" p-id="10567" fill="#dbdbdb"></path><path d="M480 0 223.998 0c-8.307 0-16.621 1.69-24.435 4.941-7.872 3.245-15.002 7.936-20.941 13.933-6.374 6.374-146.625 173.127-146.625 493.129S165.06 987.008 170.75 995.507c1.811 2.752 4.186 4.934 6.31 7.309 1.005 1.063 1.754 2.189 2.81 3.194 5.254 5.063 11.194 8.999 17.632 11.872 1.376 0.685 2.81 1.12 4.243 1.619 7.13 2.63 14.567 4.499 22.131 4.499 0.064 0 0.122 0 0.122 0l192.001 0 64 0c35.379 0 64-28.621 64-64L543.999 704.004c0-35.373-28.621-64-64-64L351.999 640.004 351.999 383.996 480 383.996c35.379 0 64-28.621 64-63.994L544 63.994C544 28.627 515.379 0 480 0zM415.999 704.004l64 0L479.999 960l-64 0L415.999 704.004zM351.999 320.002c-35.341 0-64 28.659-64 63.994l0 256.008c0 35.335 28.659 64 64 64L351.999 960 225.464 960c-0.403-0.115-0.806-0.243-1.216-0.397-0.186-0.23-0.371-0.442-0.589-0.666l-1.658-1.773c-0.691-0.941-1.536-2.042-2.502-3.315C190.532 916.07 95.997 772.472 95.997 512.003c0-281.787 114.094-430.697 128.218-448.009l127.783 0L351.998 320.002zM480 320.002l-64 0L416 63.994l64 0L480 320.002z" p-id="10568" fill="#dbdbdb"></path></svg>