<?xml version="1.0" standalone="no"?><!DOCTYPE svg PUBLIC "-//W3C//DTD SVG 1.1//EN" "http://www.w3.org/Graphics/SVG/1.1/DTD/svg11.dtd"><svg t="1551027691785" class="icon" style="" viewBox="0 0 1024 1024" version="1.1" xmlns="http://www.w3.org/2000/svg" p-id="10740" xmlns:xlink="http://www.w3.org/1999/xlink" width="128" height="128"><defs><style type="text/css"></style></defs><path d="M863.8976 508.928a102.4 102.4 0 1 1-204.8 0.0512 102.4 102.4 0 0 1 204.8 0m-256 0a102.4 102.4 0 1 1-204.8 0 102.4 102.4 0 0 1 204.8 0m-256 0a102.4 102.4 0 1 1-204.8 0 102.4 102.4 0 0 1 204.8 0M893.0304 921.6s-133.9392-38.0928-226.4576-38.0928c-75.4688 0-92.672 13.3632-156.7232 13.3632-208.896 0-377.6512-154.112-403.5584-341.3504C71.8848 307.0464 269.7728 102.4 509.8496 102.4c201.8816 0 360.704 138.3936 398.08 311.4496a391.0144 391.0144 0 0 1-3.9936 186.5216c-19.456 71.936-18.5856 152.832 2.5088 233.8816 10.752 41.472 30.6688 87.3472-13.4144 87.3472m126.7712-58.368l-14.2336-54.784c-15.5136-59.392-18.8416-122.112-2.816-181.3504a493.824 493.824 0 0 0 5.2736-234.9056C960.9216 174.336 760.9344 0 509.8496 0 204.8-0.0512-37.632 262.5024 4.864 569.6c32.8704 237.6192 244.5312 429.7216 504.9856 429.7216 75.2128 0 90.368-13.312 156.7744-13.312 80.0768 0 193.3312 33.8432 193.3312 33.8432 96.6656 24.2176 184.5248-61.9008 159.8464-156.672" p-id="10741" fill="#dbdbdb"></path></svg>