<?xml version="1.0" standalone="no"?><!DOCTYPE svg PUBLIC "-//W3C//DTD SVG 1.1//EN" "http://www.w3.org/Graphics/SVG/1.1/DTD/svg11.dtd"><svg t="1551004022714" class="icon" style="" viewBox="0 0 1024 1024" version="1.1" xmlns="http://www.w3.org/2000/svg" p-id="5118" xmlns:xlink="http://www.w3.org/1999/xlink" width="128" height="128"><defs><style type="text/css"></style></defs><path d="M113.777778 883.968V264.903111a56.888889 56.888889 0 0 1 39.594666-54.215111l398.222223-126.976A56.888889 56.888889 0 0 1 625.777778 137.955556v46.876444l255.800889 146.318222A56.888889 56.888889 0 0 1 910.222222 380.501333v503.466667h28.444445a28.444444 28.444444 0 1 1 0 56.888889H85.333333a28.444444 28.444444 0 0 1 0-56.888889h28.444445z m512 0h227.555555v-503.466667L625.777778 250.311111v633.628445z m-56.888889-683.235556V137.955556L170.666667 264.903111v619.008h398.222222V201.813333v-1.080889z m-284.444445 256.568889a28.444444 28.444444 0 0 1 28.444445 28.444445v28.444444a28.444444 28.444444 0 0 1-56.888889 0v-28.444444a28.444444 28.444444 0 0 1 28.444444-28.444445z m142.222223 0a28.444444 28.444444 0 0 1 28.444444 28.444445v28.444444a28.444444 28.444444 0 0 1-56.888889 0v-28.444444a28.444444 28.444444 0 0 1 28.444445-28.444445z m-142.222223 142.222223a28.444444 28.444444 0 0 1 28.444445 28.444444v28.444444a28.444444 28.444444 0 0 1-56.888889 0v-28.444444a28.444444 28.444444 0 0 1 28.444444-28.444444z m142.222223 0a28.444444 28.444444 0 0 1 28.444444 28.444444v28.444444a28.444444 28.444444 0 0 1-56.888889 0v-28.444444a28.444444 28.444444 0 0 1 28.444445-28.444444z m-142.222223 142.222222a28.444444 28.444444 0 0 1 28.444445 28.444444v28.444445a28.444444 28.444444 0 0 1-56.888889 0v-28.444445a28.444444 28.444444 0 0 1 28.444444-28.444444z m142.222223 0a28.444444 28.444444 0 0 1 28.444444 28.444444v28.444445a28.444444 28.444444 0 0 1-56.888889 0v-28.444445a28.444444 28.444444 0 0 1 28.444445-28.444444z m0-426.666667a28.444444 28.444444 0 0 1 28.444444 28.444445v28.444444a28.444444 28.444444 0 0 1-56.888889 0v-28.444444a28.444444 28.444444 0 0 1 28.444445-28.444445z m312.888889 142.222222a28.444444 28.444444 0 0 1 28.444444 28.444445v28.444444a28.444444 28.444444 0 0 1-56.888889 0v-28.444444a28.444444 28.444444 0 0 1 28.444445-28.444445z m0 142.222223a28.444444 28.444444 0 0 1 28.444444 28.444444v28.444444a28.444444 28.444444 0 0 1-56.888889 0v-28.444444a28.444444 28.444444 0 0 1 28.444445-28.444444z m0 142.222222a28.444444 28.444444 0 0 1 28.444444 28.444444v28.444445a28.444444 28.444444 0 0 1-56.888889 0v-28.444445a28.444444 28.444444 0 0 1 28.444445-28.444444z" p-id="5119" fill="#bfbfbf"></path></svg>