<?xml version="1.0" standalone="no"?><!DOCTYPE svg PUBLIC "-//W3C//DTD SVG 1.1//EN" "http://www.w3.org/Graphics/SVG/1.1/DTD/svg11.dtd"><svg t="1551027870675" class="icon" style="" viewBox="0 0 1024 1024" version="1.1" xmlns="http://www.w3.org/2000/svg" p-id="11778" xmlns:xlink="http://www.w3.org/1999/xlink" width="128" height="128"><defs><style type="text/css"></style></defs><path d="M275.2 104.533333 275.2 120.891733 275.2 104.533333ZM995.037867 210.577067l-14.626133-35.4816-27.144533 27.136 0 0L819.541333 335.965867c-17.5872 17.578667-40.96 27.264-65.8176 27.264-24.866133 0-48.2304-9.685333-65.8176-27.264-17.5872-17.578667-27.264-40.951467-27.264-65.809067s9.685333-48.2304 27.264-65.8176L848.768 43.460267l-35.4816-14.626133c-40.644267-16.750933-83.626667-25.250133-127.7696-25.250133-89.3952 0-173.44 34.816-236.6464 98.0224C353.194667 197.282133 324.949333 341.435733 375.936 465.544533L41.233067 800.247467c-50.286933 50.2784-50.286933 132.096 0 182.391467 24.354133 24.354133 56.746667 37.777067 91.195733 37.777067s66.8416-13.4144 91.195733-37.777067L558.336 647.927467c40.149333 16.443733 83.797333 25.070933 127.3088 25.070933 0.008533 0 0.008533 0 0.017067 0 89.386667 0 173.405867-34.807467 236.612267-98.005333C1018.197333 479.0784 1046.766933 336.034133 995.037867 210.577067zM886.075733 538.794667c-53.5296 53.5296-124.706133 83.012267-200.4224 83.012267-42.0608 0-84.241067-9.506133-122.001067-27.4944l-16.324267-7.765333-359.893333 359.901867c-14.6944 14.685867-34.218667 22.775467-54.997333 22.775467s-40.302933-8.0896-54.9888-22.775467c-30.327467-30.327467-30.327467-79.6672 0-109.994667L437.333333 476.552533l-7.773867-16.324267c-51.498667-108.142933-29.184-237.713067 55.517867-322.414933C538.624 84.266667 609.809067 54.784 685.525333 54.784c24.046933 0 47.6928 2.978133 70.656 8.866133L651.707733 168.132267c-27.246933 27.246933-42.2656 63.479467-42.2656 102.024533s15.018667 74.769067 42.2656 102.016c27.2384 27.255467 63.470933 42.2656 102.016 42.2656 38.536533 0 74.769067-15.010133 102.016-42.257067l104.507733-104.4992C985.130667 363.997867 957.883733 466.978133 886.075733 538.794667z" fill="#dbdbdb" p-id="11779"></path></svg>