<?xml version="1.0" standalone="no"?><!DOCTYPE svg PUBLIC "-//W3C//DTD SVG 1.1//EN" "http://www.w3.org/Graphics/SVG/1.1/DTD/svg11.dtd"><svg t="1551027798780" class="icon" style="" viewBox="0 0 1024 1024" version="1.1" xmlns="http://www.w3.org/2000/svg" p-id="11601" xmlns:xlink="http://www.w3.org/1999/xlink" width="128" height="128"><defs><style type="text/css"></style></defs><path d="M190.716587 887.485781c-11.542528 0-22.723243-4.554752-30.674944-12.498261-16.778581-16.786773-17.14176-44.40064-0.809643-61.554688 8.170155-8.443221 18.67776-13.038933 30.405973-13.310635 0.335872-0.008192 0.669013-0.012288 1.006251-0.012288 11.367765 0 21.945003 4.456448 29.783381 12.548779 16.743083 16.751275 17.104896 44.35968 0.770048 61.509632-8.172885 8.445952-18.681856 13.044395-30.407338 13.316096l-0.036864 0.001365h-0.036864z m-0.499712-56.451072c-3.25632 0-6.146731 1.279317-8.361302 3.697323-4.855125 5.066752-4.765013 13.130411 0.146091 18.033323 2.327893 2.326528 5.252437 3.555328 8.463701 3.555328 3.250859 0 6.144-1.280683 8.364032-3.700054 4.766379-4.971179 4.672171-13.205504-0.152917-18.033322-2.319701-2.326528-5.244245-3.552597-8.459605-3.552598z" p-id="11602" fill="#dbdbdb"></path><path d="M189.715797 803.40992c-10.794325 0.251221-20.576939 4.516523-28.099925 12.289365-15.051435 15.81056-14.801579 41.399637 0.750933 56.961707 7.529813 7.521621 17.814869 11.535701 28.349782 11.535701 10.787499-0.251221 20.571477-4.516523 28.10129-12.296192 15.0528-15.803733 14.801579-41.391445-0.750933-56.952149-7.529813-7.774208-17.816235-11.789653-28.351147-11.538432z m11.538432 51.434837c-2.756608 3.003733-6.520832 4.763648-10.787498 4.763648-4.01408 0-7.781035-1.508693-10.787499-4.516522-6.217728-6.20544-6.325589-16.24064-0.249856-22.581248 2.756608-3.013291 6.520832-4.766379 10.787499-4.766379 4.01408 0 7.778304 1.503232 10.784768 4.516523 6.019755 6.02112 6.272341 16.306176 0.252586 22.583978z m0 0" p-id="11603" fill="#dbdbdb"></path><path d="M190.216875 885.69856c-10.787499 0-21.079381-4.263936-29.103446-12.038144-16.311637-16.061781-16.561493-42.651648-1.000789-59.464363 7.772843-8.030891 18.057899-12.797269 29.353301-12.797269 11.287211-0.251221 21.572267 4.01408 29.604523 12.044971 16.304811 16.054955 16.554667 42.651648 1.000789 59.464362-7.774208 8.024064-18.064725 12.790443-29.354666 12.790443h-0.499712z m-0.501078-80.532821c-10.285056 0.248491-19.819179 4.263936-26.846549 11.793749-14.551723 15.302656-14.050645 39.638357 0.750933 54.439936 7.277227 7.278592 17.063936 11.294037 27.096406 11.044181 10.286421-0.251221 19.820544-4.266667 26.84928-11.79648 14.550357-15.302656 14.047915-39.638357-0.753664-54.439936-7.277227-7.027371-16.561493-11.041451-26.595328-11.04145h-0.501078z m0.501078 56.198485c-4.517888 0-8.533333-1.754453-11.795115-5.0176-6.770688-6.772053-7.023275-18.064725-0.502443-25.088 3.263147-3.263147 7.278592-5.264725 12.044971-5.264725h0.252587c4.516523 0 8.530603 1.751723 11.788288 5.014869 6.777515 6.773419 7.027371 18.066091 0.499712 25.088-3.25632 3.264512-7.521621 5.267456-12.038144 5.267456h-0.249856z m0-31.865515c-3.764224 0-7.028736 1.508693-9.534123 4.266667-5.267456 5.773995-5.267456 14.801579 0.249856 20.328448 2.505387 2.504021 6.019755 3.756032 9.532757 3.756032 3.515733 0 7.021909-1.503232 9.534123-4.265301 5.267456-5.769899 5.267456-14.801579-0.251221-20.320256-2.760704-2.505387-6.018389-3.765589-9.531392-3.76559z m0 0" p-id="11604" fill="#dbdbdb"></path><path d="M193.889621 993.375573c-25.796608 0-50.376704-10.231808-69.211477-28.813994l-51.754325-54.51776c-38.912-38.651221-39.844523-102.614357-2.011136-142.516224 0.387755-0.390485 0.794624-0.726357 1.20832-1.056768 0.217088-0.173397 0.438272-0.341333 0.6144-0.517462l0.18705-0.173397 442.473131-378.297003c-23.774549-40.419328-32.234155-81.296043-29.152597-140.225194 3.306837-62.783488 28.75392-122.24512 71.651328-167.429462C606.052352 29.377877 670.410069 1.041749 739.116373 0.030037A267.564373 267.564373 0 0 1 743.032149 0c32.227328 0 63.83616 6.079829 93.948587 18.070187 9.198251 3.741013 15.847424 11.666773 17.809408 21.210453 1.970176 9.588736-0.88064 19.506517-7.628117 26.525696l-125.206528 129.889621 84.140032 83.428694 124.638549-129.810432c5.844992-5.847723 13.265579-9.042603 20.938752-9.042603 1.981099 0 3.880277 0.270336 5.716651 0.53248l0.215722 0.036864c9.662464 1.993387 17.762987 8.522411 21.66784 17.466709 19.920213 47.497216 25.892181 99.054933 17.289216 149.144918-8.906069 52.168021-32.626005 99.698005-68.597077 137.445376-47.57504 50.11456-111.487659 78.278656-179.968683 79.294464-2.766165 0.036864-5.457237 0.057344-8.088234 0.057344-31.059968 0-54.12864-2.646016-85.635072-16.409942l-387.072 453.256534c-0.427349 0.726357-0.869717 1.164629-1.149611 1.444522-18.560341 19.338581-43.525461 30.299477-70.251861 30.816939a99.191467 99.191467 0 0 1-1.910102 0.017749zM112.984064 809.035093c-15.086933 16.874155-14.314155 43.418965 1.762645 59.270486l51.758422 54.524586c7.262208 7.4752 17.410731 11.776 27.815936 11.776 0.279893 0 0.561152-0.004096 0.83968-0.010922 10.603179-0.229376 20.540075-4.569771 27.994794-12.218368l402.117974-470.345046c5.596501-6.477141 13.544107-10.185387 21.818026-10.185386 5.312512 0 10.380629 1.276587 14.656854 3.68913 29.704192 16.550571 50.936491 19.689472 79.713621 19.689472 1.937408 0 3.915776-0.015019 5.937835-0.045056 52.417877-0.740011 101.486592-22.297259 138.169002-60.699989 44.741973-47.12448 64.329045-113.162923 53.024086-177.781419l-110.501888 114.843648c-5.44768 5.735765-13.083989 9.033045-20.937387 9.033046-0.215723 0.009557-0.548864 0.016384-0.882005 0.016384-7.574869 0-14.768811-3.018752-20.257451-8.500566l-125.935616-124.940288c-11.369131-11.091968-11.634005-29.5936-0.567979-41.22624l110.843222-114.95424a180.128427 180.128427 0 0 0-26.663595-1.961984c-1.232896 0-2.471253 0.012288-3.705515 0.036864-52.610389 0.73728-102.035456 22.560768-139.190272 61.452288-71.234901 74.805248-80.50688 177.158827-23.068672 254.693376 9.075371 12.473685 7.251285 29.466624-4.232533 39.550976L112.984064 809.035093z" p-id="11605" fill="#dbdbdb"></path><path d="M833.194667 1024c-16.583339 0-32.351573-6.493525-44.393814-18.280448L566.003029 786.436096c-25.385643-24.857259-26.330453-66.08896-2.101248-91.907413l4.274859-4.437334-4.912469-4.745898c-11.616256-11.332267-11.866112-29.960875-0.572075-41.540267 5.300224-5.300224 12.688043-8.486912 20.297045-8.770901h0.009558c8.282112 0 15.787349 3.016021 21.256874 8.493738l25.31328 24.810838c11.313152 11.025067 11.706368 29.518507 0.868352 41.216682l-23.840085 25.594539c-1.243819 1.247915-1.860949 2.88768-1.817259 4.702208 0.043691 1.819989 0.768683 3.559424 1.98656 4.780032l222.872918 219.358549 0.091477 0.106496c1.010347 1.182379 2.639189 1.358507 3.518464 1.358507 1.280683 0 2.486272-0.588459 3.689131-1.794048l96.772096-103.791275c2.566827-2.737493 2.521771-6.955008-0.094208-9.407146l-222.94528-219.428182-0.087382-0.1024c-1.024-1.190571-2.654208-1.369429-3.534848-1.369429-1.273856 0-2.480811 0.588459-3.691861 1.799509l-26.010965 28.015275c-5.376683 5.656576-12.967936 9.046699-20.854102 9.327957h-0.008192c-8.272555 0-15.776427-3.016021-21.251413-8.492373l-23.808683-23.307605c-5.641557-5.352107-8.768171-12.703061-8.76817-20.667051 0-7.712768 2.991445-15.110144 8.426837-20.832256 5.328896-5.328896 12.716715-8.511488 20.329813-8.794112h0.009558c8.278016 0 15.784619 3.014656 21.254144 8.484181l2.269184 2.149035 5.522773-6.053888c11.841536-12.632064 27.982507-19.861504 45.483349-20.389888 0.640341-0.019115 1.277952-0.028672 1.918294-0.028672 16.580608 0 32.342016 6.490795 44.386986 18.277717l223.049046 218.778283c25.393835 24.866816 26.335915 66.097152 2.098517 91.91424l-96.833536 103.860907c-11.823787 12.602027-27.966123 19.831467-45.4656 20.362581-0.637611 0.023211-1.272491 0.032768-1.910101 0.032768zM362.856448 483.564203c-7.682731 0-14.843904-2.930005-20.163243-8.25344l-142.734677-137.99424-59.591339 1.469098c-0.267605 0.006827-0.542037 0.010923-0.816469 0.010923-10.15808 0-19.460096-5.177344-24.887296-13.849941l-86.283605-134.444374c-7.374165-11.347285-6.088021-26.114731 3.138901-35.897344l65.219243-69.984256c5.369856-5.653845 12.962475-9.045333 20.854101-9.327957h0.013653c5.773995 0 11.057835 1.419947 15.820118 4.216149l138.752 82.303659c8.729941 5.069483 14.125739 14.162603 14.405632 24.311125l2.206378 60.123819L436.883456 390.59456c11.605333 11.324075 11.856555 29.955413 0.558421 41.536171-5.298859 5.297493-12.686677 8.480085-20.29841 8.762709h-0.009558c-8.279381 0-15.784619-3.013291-21.255509-8.484181L239.108096 280.151381c-5.390336-5.387605-8.495104-12.496896-8.774997-20.051285l-1.94287-55.914496-104.557226-61.960192-33.583104 36.074837 65.353045 101.180758 55.362901-1.217878c0.289451-0.010923 0.622592-0.017749 0.955734-0.017749 7.460181 0 14.632277 2.912256 20.198741 8.198827l151.558827 146.539861c5.618347 5.479083 8.768171 12.815019 8.877397 20.667051 0.110592 7.862955-2.841259 15.275349-8.310784 20.878677-5.233323 5.511851-12.45184 8.72448-20.290219 9.013931-0.367275 0.013653-0.733184 0.02048-1.099093 0.02048z" p-id="11606" fill="#dbdbdb"></path></svg>