<?xml version="1.0" standalone="no"?><!DOCTYPE svg PUBLIC "-//W3C//DTD SVG 1.1//EN" "http://www.w3.org/Graphics/SVG/1.1/DTD/svg11.dtd"><svg t="1551027954150" class="icon" style="" viewBox="0 0 1024 1024" version="1.1" xmlns="http://www.w3.org/2000/svg" p-id="12567" xmlns:xlink="http://www.w3.org/1999/xlink" width="128" height="128"><defs><style type="text/css"></style></defs><path d="M130.844444 603.022222h241.777778C281.6 950.044444 438.044444 967.111111 438.044444 967.111111c68.266667 0 54.044444-54.044444 59.733334-62.577778 0-170.666667 179.2-301.511111 179.2-301.511111V122.311111c0-48.355556-65.422222-65.422222-91.022222-65.422222H224.711111C190.577778 56.888889 162.133333 147.911111 162.133333 147.911111c-91.022222 307.2-91.022222 398.222222-91.022222 398.222222 0 62.577778 59.733333 56.888889 59.733333 56.888889zM776.533333 603.022222h145.066667c31.288889 0 31.288889-28.444444 31.288889-28.444444L921.6 88.177778c0-31.288889-28.444444-31.288889-28.444444-31.288889H768c-28.444444 0-28.444444 19.911111-28.444444 19.911111v489.244444c0 36.977778 36.977778 36.977778 36.977777 36.977778z" fill="#dbdbdb" p-id="12568"></path></svg>