<?xml version="1.0" standalone="no"?><!DOCTYPE svg PUBLIC "-//W3C//DTD SVG 1.1//EN" "http://www.w3.org/Graphics/SVG/1.1/DTD/svg11.dtd"><svg t="1551028026806" class="icon" style="" viewBox="0 0 1024 1024" version="1.1" xmlns="http://www.w3.org/2000/svg" p-id="12788" xmlns:xlink="http://www.w3.org/1999/xlink" width="128" height="128"><defs><style type="text/css"></style></defs><path d="M100.384 515.872c29.216-3.264 58.816-4.064 88.192-3.072 21.344 0.736 42.528 3.2 63.072 9.248 19.776 5.824 25.632 15.904 34.144 33.344 24.48 50.176 52.608 98.752 81.12 146.688 30.88 51.936 68.512 99.904 98.816 151.904 25.344 43.52 32.48 103.648 68.928 139.936 34.272 34.144 84.224-0.224 104.064-32.704 30.048-49.216 11.968-115.488-13.504-162.08-16.736-30.624-34.688-53.856-41.312-89.216-4.704-25.248-3.008-52.672 1.536-77.792 0.8-4.384 1.728-8.768 2.912-13.088-7.712 4.384-15.424 8.768-23.136 13.152 78.528 12.256 161.216 17.568 239.84 4.416 47.968-8.032 96.032-30.4 110.72-80.768 11.232-38.528-14.72-81.984-43.04-106.336 0 8.896 0 17.76 0 26.656 18.592-16 32.256-38.208 39.872-61.312 16.224-49.344-16.32-91.36-53.44-119.424 2.24 8.608 4.512 17.184 6.752 25.792 34.272-49.6 34.496-114.912-21.344-147.68 2.24 8.608 4.512 17.184 6.752 25.792 12.16-25.376 9.952-53.952-2.432-78.784-21.056-42.24-73.824-57.888-116.416-65.728-71.296-13.184-146.272-13.984-218.56-10.624-24.16 1.12-24.256 38.816 0 37.696 56.832-2.656 114.272-1.472 170.912 4.096 35.584 3.52 73.184 8.96 104.64 26.976 18.208 10.432 31.904 27.616 32.544 49.024 0.16 5.184-0.864 10.016-2.208 15.008-0.576 2.08-3.648 8.832-0.992 3.296-4.448 9.248-2.624 20.288 6.752 25.792 38.336 22.496 29.824 64.288 7.84 96.096-6.336 9.152-0.928 20 6.752 25.792 28.384 21.472 48.544 51.04 32.576 86.4-6.016 13.312-15.584 25.632-26.656 35.136-7.36 6.336-7.36 20.32 0 26.656 26.88 23.104 47.296 60.512 21.408 92.064-24.032 29.312-72.928 33.408-107.68 36.192-60.8 4.864-125.184 0.672-184.64-8.608-10.144-1.568-20.16 2.432-23.136 13.184-9.888 35.872-9.952 74.4-4.448 110.912 10.144 67.392 68.416 111.84 68.48 182.56 0.032 27.168-12.928 55.072-39.04 65.856-18.944 7.84-27.872-17.088-34.144-30.56-11.52-24.736-20.032-50.88-31.168-75.84-12.736-28.576-30.848-52.8-48.544-78.272-34.304-49.408-64.992-101.44-94.72-153.696-13.248-23.296-26.112-46.784-38.528-70.528-8.8-16.832-15.52-35.84-27.584-50.56-24.672-30.112-78.688-32.192-113.856-33.824-29.28-1.344-59.04-0.224-88.192 3.04C76.544 480.832 76.288 518.56 100.384 515.872L100.384 515.872z" p-id="12789" fill="#dbdbdb"></path></svg>